# 3ds Max Wavefront OBJ Exporter v0.97b - (c)2007 guruware
# File Created: 26.11.2017 15:07:57

mtllib Casilla_Esquina.mtl

#
# object cornercolor1
#

v  -35.0932 4.2504 -1.3363
v  -35.0932 4.2504 -2.4363
v  -35.0932 -4.4096 -1.3363
v  -35.0932 -4.4096 -2.4363
v  -32.5932 -2.9666 -2.4363
v  -32.5932 2.8074 -2.4363
v  32.4068 35.4204 -2.4363
v  -32.5932 35.4204 -2.4363
v  -2.6962 1.0974 -0.1613
v  -3.6472 1.4064 -0.1613
v  -2.8432 0.1704 -0.1613
v  -3.8432 5.1714 -0.7373
v  -4.5992 1.7154 -0.7373
v  -3.8892 3.1094 -0.7373
v  2.7938 -32.5796 -1.3363
v  -2.9802 -32.5796 -1.3363
v  4.2368 -35.0796 -1.3363
v  -4.4232 -35.0796 -1.3363
v  4.2368 -35.0796 -2.4363
v  2.7938 -32.5796 -2.4363
v  35.4068 -32.5796 -2.4363
v  35.4068 -32.5796 0.8637
v  32.4068 -32.5796 -0.2363
v  32.4068 -32.5796 0.8637
v  -32.5932 -32.5796 -0.2363
v  -32.5932 -32.5796 -2.4363
v  -4.6856 1.1704 -1.2383
v  -3.6496 1.3914 -1.2383
v  -4.5992 1.7154 -1.2383
v  -3.6472 1.4064 -1.2383
v  -3.8892 3.1094 -1.2383
v  -18.8672 6.3514 -0.7373
v  -18.8672 6.3514 -0.2363
v  -19.6878 1.1704 -0.7373
v  -16.0252 11.9274 -0.7373
v  -16.0252 11.9274 -0.2363
v  -11.6002 16.3524 -0.7373
v  -11.6002 16.3524 -0.2363
v  1.0838 -2.6826 -0.1613
v  1.0838 -2.6826 0.2637
v  0.1568 -2.8296 -0.1613
v  1.9198 -2.2566 -0.1613
v  1.9198 -2.2566 0.2637
v  2.5838 -1.5926 -0.1613
v  2.5838 -1.5926 0.2637
v  3.0098 -0.7566 0.2637
v  3.0098 -0.7566 -0.1613
v  -3.6472 -1.0656 -0.1613
v  -3.6472 -1.0656 -1.2383
v  -3.0792 -2.1806 -0.1613
v  -3.0792 -2.1806 -1.2383
v  -2.6962 -0.7566 -0.1613
v  -2.6962 -0.7566 0.2637
v  -6.0242 19.1944 -0.7373
v  -6.0242 19.1944 -0.2363
v  1.3928 -3.6336 -0.1613
v  3.3928 -2.1806 -0.1613
v  2.5078 -3.0656 -0.1613
v  3.9608 -1.0656 -0.1613
v  -2.2702 -1.5926 -0.1613
v  -2.2702 -1.5926 0.2637
v  -1.6062 -2.2566 -0.1613
v  -1.6062 -2.2566 0.2637
v  -0.7702 -2.6826 -0.1613
v  -0.7702 -2.6826 0.2637
v  2.5078 -3.0656 -1.2383
v  3.3928 -2.1806 -1.2383
v  4.2028 -2.7686 -1.2383
v  -2.1942 -3.0656 -0.1613
v  3.9608 -1.0656 -1.2383
v  4.9128 -1.3746 -1.2383
v  4.9992 -0.8296 -1.2383
v  -3.8432 0.1704 -0.1613
v  -3.8432 0.1704 -1.2383
v  -1.6062 2.5974 -0.1613
v  -1.6062 2.5974 0.2637
v  -0.7702 3.0234 0.2637
v  -0.7702 3.0234 -0.1613
v  -2.2702 1.9334 -0.1613
v  -2.2702 1.9334 0.2637
v  0.1568 3.1704 0.2637
v  0.1568 3.1704 -0.1613
v  0.1568 -2.8296 0.2637
v  -3.0792 2.5214 -0.1613
v  -2.1942 3.4064 -0.1613
v  -1.0792 3.9744 -0.1613
v  0.1568 4.1704 -0.1613
v  4.3648 5.1714 -0.7373
v  0.1568 20.1734 -0.7373
v  0.1568 5.1714 -0.7373
v  0.1568 4.1704 -1.2383
v  1.7018 4.9264 -1.2383
v  0.1568 5.1714 -1.2383
v  -1.3882 4.9264 -1.2383
v  -2.7822 4.2164 -1.2383
v  -2.7822 4.2164 -0.7373
v  -1.3882 4.9264 -0.7373
v  -1.0792 3.9744 -1.2383
v  0.1568 20.1734 -0.2363
v  -2.1942 3.4064 -1.2383
v  0.1568 -3.8296 -0.1613
v  -1.0792 -3.6336 -0.1613
v  32.4068 32.4204 0.8637
v  -32.5932 35.4204 0.8637
v  -32.5932 32.4204 0.8637
v  -32.5932 2.8074 -1.3363
v  -32.5932 -2.9666 -1.3363
v  -32.5932 32.4204 -0.2363
v  0.1568 -4.8306 -1.2383
v  1.7018 -4.5856 -1.2383
v  0.1568 -3.8296 -1.2383
v  1.3928 -3.6336 -1.2383
v  -3.8892 -2.7686 -1.2383
v  -2.1942 -3.0656 -1.2383
v  3.0958 -3.8756 -1.2383
v  -19.8462 0.1704 -0.2363
v  -2.7822 -3.8756 -1.2383
v  -1.0792 -3.6336 -1.2383
v  -19.8462 -0.8296 -0.7373
v  -19.8462 -0.8296 -1.2383
v  -19.8462 0.1704 -0.7373
v  -19.8462 1.1704 -1.2383
v  -19.8462 1.1704 -0.7373
v  -4.6856 -0.8296 -1.2383
v  -4.5992 -1.3746 -1.2383
v  -19.6878 -0.8296 -0.7373
v  -4.8442 1.1704 -0.7373
v  -4.6856 1.1704 -0.7373
v  -4.6856 -0.8296 -0.7373
v  -4.5992 -1.3746 -0.7373
v  20.1598 1.1704 -0.7373
v  20.1598 1.1704 -1.2383
v  20.1598 0.1704 -0.7373
v  20.1598 -0.8296 -1.2383
v  20.1598 -0.8296 -0.7373
v  4.9992 1.1704 -1.2383
v  4.1568 0.1704 -1.2383
v  -18.8672 -6.0106 -0.2363
v  20.0014 1.1704 -0.7373
v  20.0014 -0.8296 -0.7373
v  20.1598 0.1704 -0.2363
v  5.1578 1.1704 -0.7373
v  4.9992 1.1704 -0.7373
v  -2.9802 -32.5796 -2.4363
v  -4.4232 -35.0796 -2.4363
v  4.9128 1.7154 -1.2383
v  4.9128 1.7154 -0.7373
v  4.2028 3.1094 -0.7373
v  4.2028 3.1094 -1.2383
v  6.3378 -18.8536 -0.2363
v  0.1568 -19.8326 -0.2363
v  19.1808 6.3514 -0.7373
v  -11.6002 -16.0116 -0.2363
v  -6.0242 -18.8536 -0.2363
v  -16.0252 -11.5866 -0.2363
v  6.3378 19.1944 -0.2363
v  6.3378 19.1944 -0.7373
v  11.9138 16.3524 -0.7373
v  11.9138 16.3524 -0.2363
v  16.3388 11.9274 -0.7373
v  16.3388 11.9274 -0.2363
v  -3.8892 -2.7686 -0.7373
v  19.1808 6.3514 -0.2363
v  -3.8432 -4.8306 -0.7373
v  0.1568 -19.8326 -0.7373
v  2.5078 3.4064 -1.2383
v  3.3928 2.5214 -1.2383
v  -18.8672 -6.0106 -0.7373
v  -6.0242 -18.8536 -0.7373
v  -11.6002 -16.0116 -0.7373
v  4.9992 -0.8296 -0.7373
v  -16.0252 -11.5866 -0.7373
v  4.9128 -1.3746 -0.7373
v  35.4068 32.4204 -2.4363
v  19.1808 -6.0106 -0.2363
v  4.2028 -2.7686 -0.7373
v  -3.0792 2.5214 -1.2383
v  11.9138 -16.0116 -0.2363
v  16.3388 -11.5866 -0.2363
v  -2.6962 1.0974 0.2637
v  -2.8432 0.1704 0.2637
v  1.7018 4.9264 -0.7373
v  3.0958 4.2164 -1.2383
v  3.0958 4.2164 -0.7373
v  3.0958 -3.8756 -0.7373
v  1.7018 -4.5856 -0.7373
v  0.1568 -4.8306 -0.7373
v  -1.3882 -4.5856 -1.2383
v  -1.3882 -4.5856 -0.7373
v  -2.7822 -3.8756 -0.7373
v  5.1578 -4.8306 -0.7373
v  34.4138 34.6494 0.8637
v  34.6358 34.4274 -2.4363
v  34.4138 34.6494 -2.4363
v  19.1808 -6.0106 -0.7373
v  16.3388 -11.5866 -0.7373
v  11.9138 -16.0116 -0.7373
v  6.3378 -18.8536 -0.7373
v  33.9068 35.0184 -2.4363
v  34.1698 34.8474 -2.4363
v  34.8338 34.1834 -2.4363
v  35.0048 33.9204 -2.4363
v  35.1478 33.6404 -2.4363
v  35.2598 33.3474 -2.4363
v  35.3408 33.0444 -2.4363
v  35.3908 32.7344 -2.4363
v  33.3338 35.2734 -2.4363
v  33.6268 35.1614 -2.4363
v  33.0308 35.3544 -2.4363
v  32.7208 35.4044 -2.4363
v  35.4068 32.4204 0.8637
v  32.4068 35.4204 0.8637
v  33.3338 35.2734 0.8637
v  34.1698 34.8474 0.8637
v  35.2598 33.3474 0.8637
v  33.0308 35.3544 0.8637
v  35.3908 32.7344 0.8637
v  35.3408 33.0444 0.8637
v  35.1478 33.6404 0.8637
v  35.0048 33.9204 0.8637
v  34.8338 34.1834 0.8637
v  34.6358 34.4274 0.8637
v  33.9068 35.0184 0.8637
v  33.6268 35.1614 0.8637
v  32.7208 35.4044 0.8637
v  32.4068 32.4204 -0.2363
v  2.5838 1.9334 0.2637
v  1.0838 3.0234 0.2637
v  1.9198 2.5974 0.2637
v  3.0098 1.0974 0.2637
v  3.1568 0.1704 0.2637
v  2.5838 1.9334 -0.1613
v  3.0098 1.0974 -0.1613
v  1.9198 2.5974 -0.1613
v  1.0838 3.0234 -0.1613
v  2.5078 3.4064 -0.1613
v  3.3928 2.5214 -0.1613
v  1.3928 3.9744 -0.1613
v  3.9608 1.4064 -0.1613
v  1.3928 3.9744 -1.2383
v  3.9608 1.4064 -1.2383
v  3.9632 1.3914 -1.2383
v  3.1568 0.1704 -0.1613
v  4.1568 0.1704 -0.1613
# 244 vertices

vn -1.0000 0.0000 0.0000
vn 0.0000 0.0000 -1.0000
vn -0.0000 0.0000 1.0000
vn 0.0000 -0.0000 1.0000
vn 0.0000 0.0000 1.0000
vn 0.8661 0.4999 -0.0000
vn 0.8661 0.4999 0.0000
vn 0.0000 -1.0000 -0.0000
vn 0.0000 -1.0000 0.0000
vn -0.0000 -1.0000 -0.0000
vn -0.0000 -1.0000 0.0000
vn 0.9510 -0.3091 0.0000
vn 0.9877 -0.1564 -0.0000
vn 0.8090 -0.5878 0.0000
vn 0.5878 -0.8090 0.0000
vn 0.3091 -0.9510 0.0000
vn -0.9510 -0.3091 0.0000
vn -0.8090 -0.5878 0.0000
vn -0.9510 -0.3091 -0.0000
vn 0.3091 -0.9510 -0.0000
vn -0.0000 -0.0000 1.0000
vn -0.5878 -0.8090 0.0000
vn -0.3091 -0.9510 0.0000
vn 0.8090 -0.5878 -0.0000
vn 0.9510 -0.3091 -0.0000
vn -1.0000 -0.0000 0.0000
vn -0.5878 0.8090 0.0000
vn -0.3091 0.9510 0.0000
vn -0.8090 0.5878 0.0000
vn 0.0000 1.0000 0.0000
vn 0.8091 -0.5877 -0.0000
vn 0.5877 -0.8091 -0.0000
vn 0.3090 -0.9511 -0.0000
vn 0.8091 -0.5877 0.0000
vn -0.5878 0.8090 -0.0000
vn 0.4999 0.8661 0.0000
vn 1.0000 -0.0000 0.0000
vn 1.0000 0.0000 0.0000
vn 0.9877 0.1564 0.0000
vn 0.9877 0.1566 -0.0000
vn 0.9511 0.3090 0.0000
vn 0.9511 0.3090 -0.0000
vn 0.9510 0.3091 0.0000
vn -0.9877 -0.1564 -0.0000
vn 0.4999 -0.8661 0.0000
vn -0.9877 0.1564 0.0000
vn -0.8661 0.4999 0.0000
vn -0.9511 -0.3090 0.0000
vn -0.8091 -0.5877 0.0000
vn -0.8091 -0.5877 -0.0000
vn -0.9877 -0.1566 0.0000
vn -0.8090 -0.5878 -0.0000
vn 0.8091 0.5877 0.0000
vn 0.3091 0.9510 0.0000
vn -0.0000 1.0000 0.0000
vn 0.5878 0.8090 0.0000
vn 0.8090 0.5878 0.0000
vn -0.9511 0.3090 -0.0000
vn -0.9511 0.3090 0.0000
vn -0.9877 0.1566 -0.0000
vn -0.8091 0.5877 0.0000
vn -0.5877 0.8091 0.0000
vn -0.8090 0.5878 -0.0000
vn -0.9510 0.3091 0.0000
vn -0.9877 0.1567 0.0000
vn -1.0000 -0.0000 -0.0000
vn -0.3090 -0.9511 0.0000
vn -0.3090 -0.9511 -0.0000
vn -0.5877 -0.8091 -0.0000
vn -0.3090 0.9511 0.0000
vn 0.3090 0.9511 0.0000
vn 0.5877 0.8091 0.0000
vn 0.6695 0.7428 -0.0000
vn 0.7428 0.6695 -0.0000
vn 0.9511 -0.3090 0.0000
vn 0.9877 -0.1566 0.0000
vn 0.9997 0.0254 0.0000
vn 0.9997 0.0255 -0.0000
vn 0.0254 0.9997 0.0000
vn 0.4065 0.9136 0.0000
vn 0.3081 0.9514 0.0000
vn 0.5884 0.8086 0.0000
vn 0.5884 0.8086 -0.0000
vn 0.5007 0.8656 0.0000
vn 0.9514 0.3081 -0.0000
vn 0.9779 0.2090 -0.0000
vn 0.9136 0.4065 -0.0000
vn 0.1052 0.9944 0.0000
vn 0.2090 0.9779 0.0000
vn 0.9779 0.2090 0.0000
vn 0.9136 0.4065 0.0000
vn 0.8086 0.5884 0.0000
vn 0.7428 0.6695 0.0000
vn 0.8657 0.5006 0.0000
vn 0.8656 0.5007 0.0000
vn 0.9944 0.1052 -0.0000
vn 0.5878 0.8090 -0.0000
vn 0.3091 0.9510 -0.0000
vn 0.8090 0.5878 -0.0000
vn 0.9510 0.3091 -0.0000
vn 1.0000 -0.0000 -0.0000
vn 0.9877 0.1567 0.0000
# 102 vertex normals

g cornercolor1
usemtl wire_086086086
s 1
f 1//1 2//1 3//1 
f 4//1 3//1 2//1 
s 2
f 4//2 2//2 5//2 
f 6//2 5//2 2//2 
f 5//2 6//2 7//2 
f 8//2 7//2 6//2 
s 1
f 9//3 10//3 11//3 
f 12//4 13//4 14//4 
f 15//5 16//5 17//5 
f 18//5 17//5 16//5 
s 4
f 17//6 19//7 20//6 
f 17//6 20//6 15//6 
s 8
f 21//8 22//9 23//9 
f 24//9 23//9 22//9 
f 25//8 26//8 16//8 
f 16//8 15//10 25//8 
f 23//9 25//8 15//10 
f 15//10 20//11 23//9 
f 20//11 21//8 23//9 
s 1
f 27//5 28//5 29//5 
f 29//5 30//5 31//5 
s 2
f 32//12 33//12 34//13 
f 35//14 36//14 33//12 
f 35//14 33//12 32//12 
f 37//15 38//15 36//14 
f 37//15 36//14 35//14 
f 39//16 40//16 41//9 
f 42//15 43//15 40//16 
f 42//15 40//16 39//16 
f 44//14 45//14 43//15 
f 44//14 43//15 42//15 
f 46//12 45//14 44//14 
f 46//12 44//14 47//12 
f 48//17 49//17 50//18 
f 51//18 50//18 49//17 
f 52//17 53//19 11//1 
f 54//16 55//20 38//15 
f 54//16 38//15 37//15 
s 1
f 41//5 56//21 39//21 
f 39//21 56//21 42//4 
f 57//3 44//3 58//3 
f 42//4 58//3 44//3 
f 47//4 44//3 59//4 
s 2
f 52//17 60//18 61//18 
f 52//17 61//18 53//19 
f 60//18 62//22 63//22 
f 60//18 63//22 61//18 
f 64//23 65//23 63//22 
f 64//23 63//22 62//22 
f 57//14 66//15 67//24 
s 1
f 11//3 48//5 52//5 
f 50//5 60//5 48//5 
f 67//5 66//5 68//5 
f 52//5 48//5 60//5 
f 62//5 60//5 69//5 
s 2
f 67//24 59//25 57//14 
s 1
f 50//5 69//5 60//5 
s 2
f 59//25 67//24 70//25 
s 1
f 71//5 72//5 70//5 
s 2
f 48//17 73//26 74//26 
f 75//27 76//27 77//28 
f 75//27 77//28 78//28 
f 49//17 48//17 74//26 
f 75//27 79//29 80//29 
f 75//27 80//29 76//27 
f 77//28 81//30 82//30 
f 77//28 82//30 78//28 
f 83//11 41//9 40//16 
s 1
f 84//21 79//21 85//5 
f 86//5 85//5 75//5 
f 75//5 78//5 86//5 
f 78//5 82//5 86//5 
f 75//5 85//5 79//21 
f 10//3 79//21 84//21 
f 87//5 86//5 82//5 
f 88//21 89//3 90//21 
f 91//5 92//5 93//5 
f 93//5 94//5 91//5 
s 2
f 14//31 95//32 96//32 
f 94//33 97//33 96//32 
f 94//33 96//32 95//32 
f 90//10 97//33 94//33 
f 90//10 94//33 93//11 
s 1
f 96//4 12//4 14//4 
s 2
f 91//30 98//28 86//28 
f 91//30 86//28 87//30 
s 1
f 97//4 12//4 96//4 
s 2
f 95//32 14//31 31//34 
s 1
f 90//21 12//4 97//4 
s 2
f 54//16 89//10 55//20 
f 99//8 55//20 89//10 
s 1
f 94//5 95//5 98//5 
f 100//5 95//5 31//5 
s 2
f 64//23 41//9 65//23 
f 83//11 65//23 41//9 
f 98//28 100//35 85//35 
s 1
f 41//5 101//5 56//21 
f 58//3 42//4 56//21 
f 59//4 44//3 57//3 
s 2
f 98//28 85//35 86//28 
s 1
f 102//5 101//5 41//5 
f 41//5 64//4 102//5 
f 64//4 62//5 102//5 
f 69//5 102//5 62//5 
f 103//5 104//5 105//5 
s 4
f 6//36 2//36 1//36 
f 6//36 1//36 106//36 
s 2
f 3//5 107//5 1//5 
s 16
f 104//1 108//1 105//1 
s 1
f 109//5 110//5 111//5 
s 16
f 106//1 108//1 6//1 
f 8//1 6//1 108//1 
f 8//1 108//1 104//1 
s 2
f 101//9 111//9 56//16 
f 112//16 56//16 111//9 
s 16
f 107//1 25//1 106//1 
s 2
f 103//9 105//9 108//9 
s 1
f 51//5 113//5 114//5 
f 55//4 99//4 108//4 
s 2
f 50//18 51//18 114//22 
f 50//18 114//22 69//22 
s 1
f 110//5 115//5 112//5 
f 115//5 68//5 66//5 
f 55//4 108//4 38//4 
f 108//4 116//4 33//4 
f 36//4 108//4 33//4 
f 38//4 108//4 36//4 
s 2
f 58//15 56//16 66//15 
f 112//16 66//15 56//16 
s 1
f 114//5 117//5 118//5 
s 2
f 118//23 102//23 114//22 
s 4
f 119//37 120//37 121//38 
f 120//37 122//38 121//38 
f 123//38 121//38 122//38 
s 2
f 69//22 114//22 102//23 
f 118//23 101//9 102//23 
s 1
f 27//5 124//5 74//5 
f 125//5 49//5 124//5 
f 122//5 120//5 27//5 
f 120//5 124//5 27//5 
f 74//5 124//5 49//5 
s 8
f 34//2 121//2 123//2 
s 2
f 101//9 118//23 111//9 
s 1
f 119//2 121//2 126//2 
s 2
f 116//38 121//38 34//13 
f 116//38 34//13 33//12 
f 116//38 126//39 121//38 
f 58//15 66//15 57//14 
s 1
f 37//3 35//3 12//4 
f 35//3 32//3 12//4 
f 127//4 12//4 32//3 
f 34//5 127//4 32//3 
f 54//3 37//3 12//4 
s 16
f 27//11 128//11 127//11 
f 27//11 127//11 122//9 
s 8
f 129//30 124//30 126//30 
s 16
f 123//9 122//9 34//9 
f 127//11 34//9 122//9 
s 8
f 120//30 119//30 126//30 
f 124//30 120//30 126//30 
s 2
f 129//40 130//41 125//42 
f 129//40 125//42 124//40 
s 4
f 131//1 132//1 133//1 
f 132//1 134//26 133//1 
f 135//26 133//1 134//26 
f 129//5 126//21 130//5 
s 1
f 125//5 113//5 49//5 
f 134//5 132//5 136//5 
f 137//5 72//5 136//5 
f 134//5 136//5 72//5 
s 2
f 116//38 138//43 126//39 
s 8
f 133//2 139//2 131//2 
s 1
f 140//2 133//2 135//2 
s 2
f 106//5 1//5 107//5 
f 133//1 141//1 139//44 
s 4
f 3//45 4//45 5//45 
f 3//45 5//45 107//45 
s 2
f 141//1 133//1 140//46 
s 16
f 108//1 106//1 25//1 
f 107//1 5//1 26//1 
f 107//1 26//1 25//1 
f 132//11 142//9 136//9 
f 143//9 136//9 142//9 
s 4
f 18//47 16//47 144//47 
f 18//47 144//47 145//47 
s 16
f 142//9 132//11 139//11 
f 131//11 139//11 132//11 
s 8
f 144//9 16//8 26//8 
s 2
f 146//48 147//48 148//49 
f 146//48 148//49 149//50 
f 143//51 147//48 146//48 
f 143//51 146//48 136//51 
s 1
f 150//3 151//3 23//3 
f 147//21 88//21 148//21 
f 88//21 147//21 142//21 
f 143//21 142//21 147//21 
f 108//4 25//5 116//4 
f 142//21 152//3 88//21 
f 153//5 25//5 154//5 
f 155//5 25//5 153//5 
s 2
f 99//8 89//10 156//23 
f 157//23 156//23 89//10 
s 1
f 138//5 116//4 25//5 
f 155//5 138//5 25//5 
s 2
f 158//22 159//22 156//23 
f 158//22 156//23 157//23 
f 160//18 161//52 159//22 
f 160//18 159//22 158//22 
f 162//53 113//53 130//41 
f 125//42 130//41 113//53 
f 152//19 163//19 161//52 
f 152//19 161//52 160//18 
f 163//19 152//19 139//44 
f 163//19 139//44 141//1 
s 4
f 164//5 162//5 126//21 
f 130//5 126//21 162//5 
s 1
f 160//5 88//21 152//3 
f 158//5 88//21 160//5 
f 157//5 88//21 158//5 
f 89//3 88//21 157//5 
f 139//5 152//3 142//21 
f 51//5 49//5 113//5 
s 2
f 154//54 151//55 165//55 
s 1
f 166//5 167//5 149//5 
s 4
f 126//21 168//21 164//5 
s 2
f 169//54 154//54 165//55 
f 170//56 153//56 154//54 
f 170//56 154//54 169//54 
s 8
f 134//30 72//30 140//30 
f 135//30 134//30 140//30 
f 171//30 140//30 72//30 
s 2
f 172//57 155//57 153//56 
f 172//57 153//56 170//56 
f 71//58 173//59 171//60 
f 71//58 171//60 72//60 
f 168//43 138//43 155//57 
f 168//43 155//57 172//57 
f 68//61 173//59 71//58 
f 168//43 126//39 138//43 
s 4
f 140//4 171//3 173//3 
f 170//21 164//5 172//21 
f 169//21 164//5 170//21 
f 165//21 164//5 169//21 
f 172//21 164//5 168//21 
s 8
f 18//9 145//9 17//9 
f 19//9 17//9 145//9 
s 2
f 145//2 144//2 19//2 
f 20//2 19//2 144//2 
s 1
f 137//5 70//5 72//5 
s 2
f 5//2 174//2 144//2 
f 26//2 5//2 144//2 
s 1
f 141//21 175//3 23//3 
s 2
f 173//59 68//61 176//61 
f 115//62 176//61 68//61 
s 1
f 100//5 31//5 177//5 
f 30//5 177//5 31//5 
s 4
f 173//3 176//3 140//4 
s 2
f 84//29 177//63 10//64 
f 177//63 30//64 10//64 
f 141//1 140//46 175//64 
f 30//64 28//65 10//64 
s 1
f 70//5 67//5 68//5 
f 71//5 70//5 68//5 
s 2
f 177//63 84//29 85//35 
f 100//35 177//63 85//35 
s 1
f 74//5 28//5 27//5 
f 30//5 29//5 28//5 
s 2
f 10//64 28//65 73//26 
s 1
f 178//3 23//3 179//3 
s 2
f 74//26 73//26 28//65 
s 1
f 25//5 23//3 151//3 
s 2
f 9//64 180//64 80//29 
f 9//64 80//29 79//29 
f 9//64 11//1 181//66 
f 9//64 181//66 180//64 
s 1
f 175//3 179//3 23//3 
s 2
f 92//67 182//68 90//10 
f 92//67 90//10 93//11 
f 11//1 53//19 181//66 
f 183//69 184//69 182//68 
f 183//69 182//68 92//67 
s 1
f 178//3 150//3 23//3 
f 154//5 25//5 151//3 
f 79//21 10//3 9//3 
f 73//3 11//3 10//3 
f 11//3 73//3 48//5 
f 90//21 89//3 12//4 
f 54//3 12//4 89//3 
s 2
f 176//61 115//62 185//62 
f 110//70 186//70 185//62 
f 110//70 185//62 115//62 
s 1
f 90//21 182//21 88//21 
f 184//21 88//21 182//21 
f 100//5 98//5 95//5 
f 98//5 91//5 94//5 
s 2
f 187//55 186//70 110//70 
f 187//55 110//70 109//30 
f 188//71 189//71 187//55 
f 188//71 187//55 109//30 
f 117//72 190//72 189//71 
f 117//72 189//71 188//71 
f 117//72 113//53 190//72 
f 162//53 190//72 113//53 
s 4
f 140//4 176//3 191//3 
f 185//3 191//3 176//3 
f 186//3 191//3 185//3 
f 187//5 191//3 186//3 
f 192//73 193//74 194//73 
f 164//5 187//5 189//5 
f 164//5 189//5 190//5 
f 162//5 164//5 190//5 
f 191//3 195//4 140//4 
s 2
f 29//75 13//75 128//76 
f 29//75 128//76 27//76 
f 31//34 14//31 13//75 
f 31//34 13//75 29//75 
s 1
f 66//5 112//5 115//5 
f 112//5 111//5 110//5 
f 118//5 188//5 111//5 
f 113//5 117//5 114//5 
f 188//5 118//5 117//5 
f 109//5 111//5 188//5 
s 2
f 195//64 175//64 140//46 
s 1
f 128//4 13//4 127//4 
f 12//4 127//4 13//4 
s 2
f 196//29 179//29 175//64 
f 196//29 175//64 195//64 
f 197//27 178//27 179//29 
f 197//27 179//29 196//29 
f 198//28 150//28 178//27 
f 198//28 178//27 197//27 
f 150//28 198//28 165//55 
f 150//28 165//55 151//55 
s 4
f 197//4 191//3 198//4 
f 196//4 191//3 197//4 
f 195//4 191//3 196//4 
f 165//21 198//4 191//3 
f 165//21 191//3 187//5 
f 165//21 187//5 164//5 
s 2
f 199//2 200//2 5//2 
f 200//2 194//2 5//2 
f 194//2 193//2 5//2 
f 193//2 201//2 5//2 
f 201//2 202//2 5//2 
f 202//2 203//2 5//2 
f 203//2 204//2 5//2 
f 204//2 205//2 5//2 
f 205//2 206//2 5//2 
f 174//2 5//2 206//2 
f 207//2 208//2 5//2 
f 209//2 207//2 5//2 
f 209//2 5//2 210//2 
f 21//2 20//2 174//2 
f 7//2 210//2 5//2 
f 20//2 144//2 174//2 
f 208//2 199//2 5//2 
s 4
f 22//38 21//38 211//77 
f 21//38 174//78 211//77 
f 7//79 8//30 212//79 
f 104//30 212//79 8//30 
f 208//80 207//81 213//81 
f 214//82 200//83 199//84 
f 204//85 215//85 205//86 
f 203//87 215//85 204//85 
f 210//88 216//89 209//89 
s 1
f 211//5 217//5 103//5 
f 216//5 103//5 213//5 
f 217//5 218//5 103//5 
f 218//5 215//5 103//5 
f 215//5 219//5 103//5 
f 219//5 220//5 103//5 
f 220//5 221//5 103//5 
f 221//5 222//5 103//5 
f 222//5 192//5 103//5 
f 192//5 214//5 103//5 
f 214//5 223//5 103//5 
f 223//5 224//5 103//5 
f 213//5 103//5 224//5 
s 4
f 207//81 209//89 216//89 
f 207//81 216//89 213//81 
s 1
f 104//5 103//5 212//5 
s 4
f 192//73 194//73 200//83 
f 192//73 200//83 214//82 
s 1
f 225//5 212//5 103//5 
f 225//5 103//5 216//5 
f 24//5 211//5 103//5 
f 211//5 24//5 22//5 
s 4
f 224//80 208//80 213//81 
f 214//82 199//84 223//84 
f 215//85 218//90 205//86 
f 203//87 219//91 215//85 
f 221//92 201//92 222//93 
f 193//74 222//93 201//92 
f 202//94 201//92 220//95 
f 221//92 220//95 201//92 
f 203//87 202//94 219//91 
f 220//95 219//91 202//94 
f 199//84 208//80 224//80 
f 199//84 224//80 223//84 
f 193//74 192//73 222//93 
f 211//77 174//78 217//96 
f 206//96 217//96 174//78 
f 206//96 205//86 217//96 
f 218//90 217//96 205//86 
f 225//88 216//89 210//88 
s 2
f 103//9 108//9 226//9 
s 4
f 7//79 212//79 225//88 
s 1
f 108//4 99//4 226//21 
s 4
f 210//88 7//79 225//88 
f 103//1 226//1 24//1 
f 23//1 24//1 226//1 
s 1
f 159//21 226//21 156//21 
f 23//3 226//21 141//21 
f 161//21 226//21 159//21 
f 163//21 226//21 161//21 
f 163//21 141//21 226//21 
f 156//21 226//21 99//4 
f 81//5 227//21 228//5 
f 229//21 228//5 227//21 
f 227//21 81//5 230//5 
f 231//21 230//5 81//5 
f 46//4 231//21 81//5 
f 45//4 81//5 43//4 
f 46//4 81//5 45//4 
f 40//21 43//4 81//5 
f 40//21 81//5 83//21 
f 76//5 80//4 77//3 
f 80//4 81//5 77//3 
f 180//21 81//5 80//4 
f 181//21 81//5 180//21 
f 53//21 81//5 181//21 
f 81//5 53//21 61//3 
f 81//5 61//3 63//4 
f 81//5 63//4 65//4 
f 81//5 65//4 83//21 
s 2
f 232//57 227//57 233//43 
f 234//56 229//56 227//57 
f 234//56 227//57 232//57 
f 234//56 235//54 228//54 
f 234//56 228//54 229//56 
f 235//54 82//30 81//30 
f 235//54 81//30 228//54 
s 1
f 236//5 232//4 237//4 
f 238//5 234//5 236//5 
f 232//4 239//5 237//4 
f 233//5 239//5 232//4 
f 87//5 82//5 238//5 
f 232//4 236//5 234//5 
f 234//5 238//5 235//5 
f 235//5 238//5 82//5 
s 2
f 149//50 148//49 184//69 
f 149//50 184//69 183//69 
s 1
f 88//21 184//21 148//21 
f 149//5 183//5 166//5 
f 166//5 183//5 240//5 
f 92//5 240//5 183//5 
s 2
f 236//97 166//97 240//98 
f 236//97 240//98 238//98 
s 1
f 91//5 240//5 92//5 
s 2
f 91//30 87//30 240//98 
f 238//98 240//98 87//30 
s 1
f 167//5 241//5 149//5 
f 242//5 136//5 146//5 
s 2
f 236//97 237//57 167//99 
f 236//97 167//99 166//97 
s 1
f 146//5 241//5 242//5 
f 146//5 149//5 241//5 
s 2
f 237//57 239//43 167//99 
f 167//99 239//43 241//100 
s 1
f 233//5 243//4 239//5 
f 59//4 244//5 243//4 
f 59//4 243//4 47//4 
f 137//5 136//5 242//5 
s 2
f 137//101 242//102 244//37 
f 239//43 244//37 242//102 
f 242//102 241//100 239//43 
f 59//25 137//101 244//37 
f 59//25 70//25 137//101 
f 47//12 243//37 231//37 
f 47//12 231//37 46//12 
s 1
f 244//5 239//5 243//4 
s 2
f 233//43 230//43 231//37 
f 233//43 231//37 243//37 
f 227//57 230//43 233//43 
# 0 polygons - 484 triangles

